<?xml version="1.0" encoding="UTF-8" standalone="no"?>
<!-- Created with Inkscape (http://www.inkscape.org/) -->

<svg
   width="664.75446"
   height="203.00003"
   viewBox="0 0 175.88292 53.710426"
   version="1.1"
   id="svg53271"
   xmlns="http://www.w3.org/2000/svg"
   xmlns:svg="http://www.w3.org/2000/svg">
  <defs
     id="defs53268">
    <rect
       x="283.14282"
       y="28.064447"
       width="235.6088"
       height="51.416283"
       id="rect3453" />
    <rect
       x="-106.77492"
       y="165.17999"
       width="238.23643"
       height="65.565048"
       id="rect23134" />
  </defs>
  <g
     id="layer1"
     transform="translate(84.557137,-15.476881)">
    <g
       id="g23767">
      <circle
         style="font-size:40px;white-space:pre;fill:none;fill-opacity:1;stroke:#000000;stroke-width:2.2823;stroke-linecap:butt;stroke-linejoin:round;stroke-miterlimit:4;stroke-dasharray:none;stroke-opacity:1;paint-order:markers stroke fill"
         id="path21271"
         cx="-49.404827"
         cy="41.453865"
         r="24.835835" />
      <path
         id="circle1088"
         style="fill:#010000;fill-rule:evenodd;stroke-width:0.138837"
         d="m -28.22221,23.125019 a 4.9505111,4.9505111 0 0 1 -4.95049,4.950511 4.9505111,4.9505111 0 0 1 -4.95051,-4.950511 4.9505111,4.9505111 0 0 1 4.95051,-4.950511 4.9505111,4.9505111 0 0 1 4.95049,4.950511 z" />
      <circle
         style="font-size:40px;white-space:pre;fill:#ffffff;fill-opacity:1;stroke:none;stroke-width:2.38125;stroke-linecap:butt;stroke-linejoin:round;stroke-miterlimit:4;stroke-dasharray:none;stroke-opacity:1;paint-order:markers stroke fill"
         id="circle53328"
         cx="-49.753681"
         cy="41.453865"
         r="24.835835" />
      <path
         id="circle1290"
         style="fill:#010000;fill-rule:evenodd;stroke-width:0.14278"
         d="m -28.931235,64.09623 a 5.0910852,5.0910852 0 0 1 -5.091065,5.091075 5.0910852,5.0910852 0 0 1 -5.091055,-5.091075 5.0910852,5.0910852 0 0 1 5.091055,-5.091055 5.0910852,5.0910852 0 0 1 5.091065,5.091055 z" />
      <path
         id="circle1288"
         style="fill:#010000;fill-rule:evenodd;stroke-width:0.149098"
         d="m -66.74325,52.635422 a 5.3163836,5.3163836 0 0 1 -5.31638,5.31637 5.3163836,5.3163836 0 0 1 -5.316387,-5.31637 5.3163836,5.3163836 0 0 1 5.316387,-5.31638 5.3163836,5.3163836 0 0 1 5.31638,5.31638 z" />
      <ellipse
         style="font-size:40px;white-space:pre;fill:none;fill-opacity:1;stroke:#000000;stroke-width:1.21708;stroke-linecap:butt;stroke-linejoin:round;stroke-miterlimit:4;stroke-dasharray:none;stroke-opacity:1;paint-order:markers stroke fill"
         id="circle53326"
         cx="-49.551132"
         cy="41.704388"
         rx="34.397465"
         ry="16.800476" />
      <path
         id="circle15021"
         style="fill:#010000;fill-rule:evenodd;stroke-width:0.0694185"
         d="m -20.30837,23.812807 a 2.4752549,2.4752549 0 0 1 -2.47526,2.475255 2.4752549,2.4752549 0 0 1 -2.47525,-2.475255 2.4752549,2.4752549 0 0 1 2.47525,-2.475256 2.4752549,2.4752549 0 0 1 2.47526,2.475256 z" />
      <text
         xml:space="preserve"
         transform="matrix(0.71688097,0,0,0.71688097,3.7101,-90.485509)"
         id="text23132"
         style="font-style:normal;font-variant:normal;font-weight:normal;font-stretch:normal;font-size:40px;line-height:1.25;font-family:Chilanka;-inkscape-font-specification:'Chilanka, Normal';font-variant-ligatures:normal;font-variant-caps:normal;font-variant-numeric:normal;font-variant-east-asian:normal;white-space:pre;shape-inside:url(#rect23134);fill:#000000;fill-opacity:1;stroke:none"><tspan
           x="-106.77539"
           y="198.1875"
           id="tspan23897"><tspan
             style="font-family:Dyuthi;-inkscape-font-specification:'Dyuthi, Normal'"
             id="tspan23895">WE</tspan></tspan></text>
      <path
         id="path50770"
         style="fill:#010000;fill-rule:evenodd;stroke-width:0.0694185"
         d="m -65.6523,64.944955 a 2.4752549,2.4752549 0 0 1 -2.47524,2.47524 2.4752549,2.4752549 0 0 1 -2.47526,-2.47524 2.4752549,2.4752549 0 0 1 2.47526,-2.47527 2.4752549,2.4752549 0 0 1 2.47524,2.47527 z" />
    </g>
    <text
       xml:space="preserve"
       transform="matrix(0.85318404,0,0,0.85318404,-253.19557,-0.77944769)"
       id="text3451"
       style="font-style:normal;font-weight:normal;font-size:40px;line-height:1.25;font-family:sans-serif;white-space:pre;shape-inside:url(#rect3453);fill:#000000;fill-opacity:1;stroke:none"><tspan
         x="283.14258"
         y="64.09463"
         id="tspan23901"><tspan
           style="font-stretch:condensed;font-family:'Liberation Sans Narrow';-inkscape-font-specification:'Liberation Sans Narrow, Condensed'"
           id="tspan23899">Deverse</tspan></tspan></text>
  </g>
</svg>
