<?xml version="1.0" encoding="UTF-8"?>
<svg version="1.1" viewBox="0 0 50 38.658" xml:space="preserve" xmlns="http://www.w3.org/2000/svg">
<g transform="matrix(-1.1123 0 0 1.1123 50 -5.6708)">
	<path d="m44.952 22.108c0-1.25-.478-2.424-1.362-3.308l-12.963-12.969c-.977-.977-2.561-.977-3.536 0-.978.977-.976 2.568 0 3.546l10.574 10.57h-35.181c-1.382.001-2.484 1.134-2.484 2.517v.028c0 1.382 1.102 2.523 2.484 2.523h35.182l-10.572 10.564c-.978.978-.978 2.564 0 3.541.977.979 2.561.978 3.538-.001l12.958-12.97c.885-.882 1.362-2.059 1.362-3.309v-.732z"/>
</g>















</svg>
