<?xml version="1.0" encoding="UTF-8" standalone="no"?>
<!-- Created with Inkscape (http://www.inkscape.org/) -->

<svg
   width="66.145836mm"
   height="3.2887602mm"
   viewBox="0 0 66.145836 3.2887602"
   version="1.1"
   id="svg5"
   xmlns="http://www.w3.org/2000/svg"
   xmlns:svg="http://www.w3.org/2000/svg">
  <defs
     id="defs2">
    <rect
       x="1.8355155"
       y="397.66589"
       width="995.23541"
       height="316.70654"
       id="rect1904" />
  </defs>
  <g
     id="layer1"
     transform="translate(-1.4572754,-107.34347)">
    <g
       aria-label="HIRE CARIBBEAN DEVELOPERS"
       transform="scale(0.26458333)"
       id="text1902"
       style="font-size:40px;line-height:1.25;white-space:pre;shape-inside:url(#rect1904)">
      <path
         d="m 14.756082,405.90546 v 12.14968 h -1.978239 v -5.47313 H 8.194921 v -1.35179 h 4.582922 v -5.32476 z m -9.2482695,0 h 2.0112104 v 12.14968 H 5.5078125 Z"
         style="font-family:'Allerta Stencil';-inkscape-font-specification:'Allerta Stencil, Normal';stroke-width:0.422024"
         id="path7689" />
      <path
         d="m 19.866534,418.05514 h -2.01121 v -12.14968 h 2.01121 z"
         style="font-family:'Allerta Stencil';-inkscape-font-specification:'Allerta Stencil, Normal';stroke-width:0.422024"
         id="path7686" />
      <path
         d="m 22.866864,405.90546 h 1.978239 v 12.14968 h -1.978239 z m 8.242665,12.14968 h -2.093636 l -2.291462,-4.40158 q -0.04946,0 -0.115398,0.0165 -0.04946,0 -0.164853,0 -0.115397,0 -0.346191,0 -0.21431,0 -0.576987,0 v -1.45071 h 1.121002 q 0.362677,0 0.725355,-0.1154 0.362677,-0.13188 0.659413,-0.41213 0.296736,-0.28026 0.478074,-0.77481 0.181339,-0.51105 0.181339,-1.25289 0,-0.29674 -0.08243,-0.6759 -0.08243,-0.39565 -0.346193,-0.74184 -0.24728,-0.36268 -0.708869,-0.59347 -0.461589,-0.24728 -1.219914,-0.24728 h -0.807781 v -1.50017 h 0.840752 q 0.77481,0 1.533135,0.24729 0.758325,0.24727 1.351798,0.74184 0.609958,0.49455 0.972634,1.20342 0.379163,0.69239 0.379163,1.56611 0,1.31883 -0.609958,2.24201 -0.609957,0.92317 -1.648533,1.36828 z"
         style="font-family:'Allerta Stencil';-inkscape-font-specification:'Allerta Stencil, Normal';stroke-width:0.422024"
         id="path7683" />
      <path
         d="m 33.829608,405.90546 h 2.011209 v 12.14968 h -2.011209 z m 7.08869,6.67655 h -4.40158 v -1.35179 h 4.40158 z m -4.40158,3.97297 h 4.912628 v 1.50016 h -4.912628 z m 4.912628,-10.64952 v 1.50016 h -4.912628 v -1.50016 z"
         style="font-family:'Allerta Stencil';-inkscape-font-specification:'Allerta Stencil, Normal';stroke-width:0.422024"
         id="path7680" />
      <path
         d="m 55.507818,408.24637 q -0.379163,-0.42862 -0.807785,-0.64292 -0.428617,-0.21432 -0.923178,-0.24729 v -1.63204 q 1.846358,0.0824 3.099242,1.30234 z m -1.730963,8.25915 q 0.494561,-0.0494 0.923178,-0.26376 0.445104,-0.21431 0.807785,-0.62645 l 1.368279,1.20343 q -0.626442,0.60996 -1.401253,0.93967 -0.774811,0.32971 -1.697989,0.37916 z m -5.341247,-4.58292 q 0,-1.46719 0.346196,-2.5882 0.362674,-1.121 0.989119,-1.89581 0.626439,-0.77481 1.467194,-1.20343 0.857237,-0.42862 1.86284,-0.51104 v 1.64853 q -0.544015,0.0824 -1.022088,0.37916 -0.478078,0.28025 -0.840752,0.82427 -0.362681,0.54402 -0.576989,1.38476 -0.197822,0.82427 -0.214307,1.96176 0.01651,1.15398 0.214307,1.97824 0.214308,0.82427 0.576989,1.38477 0.362674,0.5605 0.840752,0.85723 0.494558,0.29674 1.022088,0.36268 v 1.61556 q -1.005603,-0.0659 -1.86284,-0.49456 -0.840755,-0.42861 -1.467194,-1.20343 -0.626445,-0.7748 -0.989119,-1.89581 -0.346196,-1.13749 -0.346196,-2.60468 z"
         style="font-family:'Allerta Stencil';-inkscape-font-specification:'Allerta Stencil, Normal';stroke-width:0.422024"
         id="path7677" />
      <path
         d="m 69.668711,418.05514 h -2.04418 l -3.148699,-9.0999 -3.181667,9.0999 H 59.2335 l 4.253212,-12.1332 h 1.961757 z m -4.104845,-3.85756 0.478073,1.33531 h -3.148698 l 0.461589,-1.33531 z"
         style="font-family:'Allerta Stencil';-inkscape-font-specification:'Allerta Stencil, Normal';stroke-width:0.422024"
         id="path7674" />
      <path
         d="m 72.190967,405.90546 h 1.97824 v 12.14968 h -1.97824 z m 8.242665,12.14968 h -2.093634 l -2.291462,-4.40158 q -0.04946,0 -0.1154,0.0165 -0.04946,0 -0.164851,0 -0.115397,0 -0.346194,0 -0.21431,0 -0.576983,0 v -1.45071 h 1.121002 q 0.362674,0 0.725355,-0.1154 0.362674,-0.13188 0.659412,-0.41213 0.296735,-0.28026 0.478073,-0.77481 0.181341,-0.51105 0.181341,-1.25289 0,-0.29674 -0.08243,-0.6759 -0.08243,-0.39565 -0.346191,-0.74184 -0.247279,-0.36268 -0.708868,-0.59347 -0.461591,-0.24728 -1.219913,-0.24728 h -0.80778 v -1.50017 h 0.840747 q 0.774813,0 1.53314,0.24729 0.758324,0.24727 1.351795,0.74184 0.609955,0.49455 0.972636,1.20342 0.379163,0.69239 0.379163,1.56611 0,1.31883 -0.60996,2.24201 -0.609958,0.92317 -1.648532,1.36828 z"
         style="font-family:'Allerta Stencil';-inkscape-font-specification:'Allerta Stencil, Normal';stroke-width:0.422024"
         id="path7671" />
      <path
         d="m 85.148437,418.05514 h -2.011213 v -12.14968 h 2.011213 z"
         style="font-family:'Allerta Stencil';-inkscape-font-specification:'Allerta Stencil, Normal';stroke-width:0.422024"
         id="path7668" />
      <path
         d="m 93.984572,411.65884 q 0.379166,0.0494 0.80778,0.24728 0.428623,0.19782 0.791296,0.5605 0.379166,0.36267 0.626445,0.8902 0.247276,0.51105 0.247276,1.18695 0,0.82426 -0.247276,1.41774 -0.247279,0.59347 -0.626445,0.98911 -0.362673,0.37917 -0.80778,0.60996 -0.42862,0.21431 -0.840752,0.32971 -0.395648,0.1154 -0.70887,0.14837 -0.313218,0.0165 -0.412133,0.0165 h -1.912298 v -1.45071 h 1.796901 q 0.873726,0 1.368284,-0.56049 0.494561,-0.56051 0.494561,-1.50017 0,-0.89021 -0.511045,-1.50017 -0.511048,-0.60995 -1.500166,-0.60995 h -1.648535 v -1.33531 h 0.791295 q 0.362682,0 0.74184,-0.0165 0.379163,-0.0165 0.70887,-0.18134 0.329707,-0.16485 0.52753,-0.5605 0.21431,-0.39565 0.21431,-1.13749 0,-0.29674 -0.08243,-0.60995 -0.08243,-0.32971 -0.329707,-0.59347 -0.247281,-0.26377 -0.70887,-0.42863 -0.461589,-0.16485 -1.219913,-0.16485 h -0.642929 v -1.50016 h 0.840754 q 0.774811,0 1.500166,0.18134 0.725355,0.18133 1.285854,0.57698 0.560501,0.39565 0.890208,1.03858 0.329707,0.62644 0.329707,1.50016 0,0.51105 -0.164856,0.93967 -0.164851,0.41213 -0.412132,0.72535 -0.247279,0.31322 -0.576986,0.52753 -0.313223,0.19782 -0.609958,0.26377 z m -5.736893,-5.75338 h 1.97824 v 12.14968 h -1.97824 z"
         style="font-family:'Allerta Stencil';-inkscape-font-specification:'Allerta Stencil, Normal';stroke-width:0.422024"
         id="path7665" />
      <path
         d="m 105.04623,411.65884 q 0.37916,0.0494 0.80778,0.24728 0.42862,0.19782 0.7913,0.5605 0.37916,0.36267 0.62644,0.8902 0.24728,0.51105 0.24728,1.18695 0,0.82426 -0.24728,1.41774 -0.24728,0.59347 -0.62644,0.98911 -0.36268,0.37917 -0.80778,0.60996 -0.42863,0.21431 -0.84076,0.32971 -0.39564,0.1154 -0.70887,0.14837 -0.31322,0.0165 -0.41213,0.0165 h -1.9123 v -1.45071 h 1.7969 q 0.87372,0 1.36829,-0.56049 0.49455,-0.56051 0.49455,-1.50017 0,-0.89021 -0.51104,-1.50017 -0.51104,-0.60995 -1.50016,-0.60995 h -1.64854 v -1.33531 h 0.7913 q 0.36267,0 0.74184,-0.0165 0.37916,-0.0165 0.70887,-0.18134 0.3297,-0.16485 0.52753,-0.5605 0.21431,-0.39565 0.21431,-1.13749 0,-0.29674 -0.0824,-0.60995 -0.0824,-0.32971 -0.32971,-0.59347 -0.24728,-0.26377 -0.70887,-0.42863 -0.46159,-0.16485 -1.21991,-0.16485 h -0.64293 v -1.50016 h 0.84076 q 0.7748,0 1.50016,0.18134 0.72535,0.18133 1.28585,0.57698 0.5605,0.39565 0.89021,1.03858 0.32971,0.62644 0.32971,1.50016 0,0.51105 -0.16485,0.93967 -0.16486,0.41213 -0.41214,0.72535 -0.24728,0.31322 -0.57698,0.52753 -0.31323,0.19782 -0.60996,0.26377 z m -5.736895,-5.75338 h 1.978235 v 12.14968 h -1.978235 z"
         style="font-family:'Allerta Stencil';-inkscape-font-specification:'Allerta Stencil, Normal';stroke-width:0.422024"
         id="path7662" />
      <path
         d="m 110.3545,405.90546 h 2.01121 v 12.14968 h -2.01121 z m 7.0887,6.67655 h -4.40159 v -1.35179 h 4.40159 z m -4.40159,3.97297 h 4.91263 v 1.50016 h -4.91263 z m 4.91263,-10.64952 v 1.50016 h -4.91263 v -1.50016 z"
         style="font-family:'Allerta Stencil';-inkscape-font-specification:'Allerta Stencil, Normal';stroke-width:0.422024"
         id="path7659" />
      <path
         d="m 130.61497,418.05514 h -2.04418 l -3.14869,-9.0999 -3.18168,9.0999 h -2.06066 l 4.25322,-12.1332 h 1.96175 z m -4.10484,-3.85756 0.47807,1.33531 h -3.14869 l 0.46158,-1.33531 z"
         style="font-family:'Allerta Stencil';-inkscape-font-specification:'Allerta Stencil, Normal';stroke-width:0.422024"
         id="path7656" />
      <path
         d="m 139.94567,405.90546 h 2.01121 v 12.14968 h -2.01121 l -4.08836,-7.1876 v -3.79163 l 4.08836,7.20409 z m -6.77547,12.14968 v -12.14968 h 2.01121 v 12.14968 z"
         style="font-family:'Allerta Stencil';-inkscape-font-specification:'Allerta Stencil, Normal';stroke-width:0.422024"
         id="path7653" />
      <path
         d="m 149.55662,405.90546 h 1.97824 v 12.14968 h -1.97824 z m 3.65974,0 q 1.53313,0 2.68711,0.49455 1.17046,0.47808 1.92878,1.28586 0.77481,0.80778 1.15398,1.84636 0.37916,1.02209 0.37916,2.11012 0,1.50017 -0.32971,2.57171 -0.31322,1.05506 -0.80778,1.78042 -0.49456,0.70887 -1.121,1.121 -0.60996,0.41213 -1.18695,0.62644 -0.57699,0.19782 -1.05506,0.26377 -0.47807,0.0494 -0.70887,0.0494 h -1.94526 v -1.45071 h 1.28585 q 2.01121,0 2.90142,-1.28585 0.89021,-1.28586 0.89021,-3.72569 0,-0.75832 -0.18134,-1.50016 -0.18134,-0.74184 -0.70887,-1.33531 -0.51105,-0.60996 -1.40125,-0.97264 -0.89021,-0.37916 -2.30795,-0.37916 h -0.47807 v -1.50016 z"
         style="font-family:'Allerta Stencil';-inkscape-font-specification:'Allerta Stencil, Normal';stroke-width:0.422024"
         id="path7650" />
      <path
         d="m 162.23383,405.90546 h 2.01121 v 12.14968 h -2.01121 z m 7.08869,6.67655 h -4.40158 v -1.35179 h 4.40158 z m -4.40158,3.97297 h 4.91263 v 1.50016 h -4.91263 z m 4.91263,-10.64952 v 1.50016 h -4.91263 v -1.50016 z"
         style="font-family:'Allerta Stencil';-inkscape-font-specification:'Allerta Stencil, Normal';stroke-width:0.422024"
         id="path7647" />
      <path
         d="m 172.00963,405.90546 h 2.25849 l 2.55523,9.52851 v 2.68711 h -1.03858 z m 8.06133,0 h 2.242 l -3.95648,12.21562 h -0.85723 v -3.21464 z"
         style="font-family:'Allerta Stencil';-inkscape-font-specification:'Allerta Stencil, Normal';stroke-width:0.422024"
         id="path7644" />
      <path
         d="m 184.83522,405.90546 h 2.01121 v 12.14968 h -2.01121 z m 7.08869,6.67655 h -4.40158 v -1.35179 h 4.40158 z m -4.40158,3.97297 h 4.91263 v 1.50016 h -4.91263 z m 4.91263,-10.64952 v 1.50016 h -4.91263 v -1.50016 z"
         style="font-family:'Allerta Stencil';-inkscape-font-specification:'Allerta Stencil, Normal';stroke-width:0.422024"
         id="path7641" />
      <path
         d="m 197.16625,405.90546 v 10.64952 h 5.58852 v 1.50016 h -7.59973 v -12.14968 z"
         style="font-family:'Allerta Stencil';-inkscape-font-specification:'Allerta Stencil, Normal';stroke-width:0.422024"
         id="path7638" />
      <path
         d="m 204.5187,411.9226 q 0,-1.46719 0.34619,-2.5882 0.36268,-1.13748 0.98912,-1.91229 0.64293,-0.7913 1.50017,-1.20343 0.87372,-0.42862 1.89581,-0.49456 v 1.64853 q -0.5605,0.0659 -1.05506,0.34619 -0.49456,0.28025 -0.85724,0.82427 -0.36267,0.54401 -0.57698,1.38477 -0.21431,0.84075 -0.2308,1.99472 0.0165,1.17046 0.2308,2.01121 0.21431,0.82427 0.57698,1.38477 0.37917,0.5605 0.87373,0.85724 0.49456,0.28025 1.03857,0.3297 v 1.63205 q -1.0056,-0.0659 -1.87933,-0.47808 -0.87372,-0.42861 -1.51665,-1.20342 -0.62644,-0.7913 -0.98912,-1.92879 -0.34619,-1.13749 -0.34619,-2.60468 z m 5.39071,-6.19848 q 1.0056,0.0494 1.86284,0.47807 0.87372,0.42862 1.50016,1.21992 0.64293,0.77481 1.00561,1.91229 0.36268,1.12101 0.36268,2.5882 0,1.46719 -0.36268,2.60468 -0.36268,1.13749 -1.00561,1.92879 -0.62644,0.77481 -1.48368,1.20342 -0.85724,0.41214 -1.87932,0.47808 v -1.63205 q 0.5605,-0.0659 1.05506,-0.34619 0.49455,-0.29673 0.85724,-0.84075 0.36267,-0.5605 0.57698,-1.38477 0.21431,-0.84075 0.2308,-2.01121 -0.0165,-1.17046 -0.2308,-1.99472 -0.21431,-0.84076 -0.59347,-1.38477 -0.36268,-0.56051 -0.85724,-0.84075 -0.49456,-0.29674 -1.03857,-0.3462 z"
         style="font-family:'Allerta Stencil';-inkscape-font-specification:'Allerta Stencil, Normal';stroke-width:0.422024"
         id="path7635" />
      <path
         d="m 217.41023,405.90546 h 1.97824 v 12.14968 h -1.97824 z m 3.49489,0 q 0.77481,0 1.53314,0.24728 0.75832,0.24727 1.35179,0.74184 0.60996,0.49455 0.97264,1.20342 0.37916,0.69239 0.37916,1.56611 0,0.92318 -0.31322,1.6815 -0.31322,0.74184 -0.87372,1.25289 -0.56051,0.51104 -1.3518,0.79129 -0.7913,0.28026 -1.74744,0.28026 h -0.7913 v -1.45071 h 1.13748 q 0.36269,0 0.70888,-0.1154 0.36267,-0.13188 0.65941,-0.41213 0.29673,-0.28026 0.47807,-0.77481 0.18134,-0.51105 0.18134,-1.25289 0,-0.29674 -0.0824,-0.6759 -0.0824,-0.39565 -0.3462,-0.74184 -0.24728,-0.36268 -0.70886,-0.59347 -0.46159,-0.24728 -1.21992,-0.24728 h -0.80778 v -1.50016 z"
         style="font-family:'Allerta Stencil';-inkscape-font-specification:'Allerta Stencil, Normal';stroke-width:0.422024"
         id="path7632" />
      <path
         d="m 227.4498,405.90546 h 2.0112 v 12.14968 h -2.0112 z m 7.08869,6.67655 h -4.40158 v -1.35179 h 4.40158 z m -4.40158,3.97297 h 4.91262 v 1.50016 h -4.91262 z m 4.91262,-10.64952 v 1.50016 h -4.91262 v -1.50016 z"
         style="font-family:'Allerta Stencil';-inkscape-font-specification:'Allerta Stencil, Normal';stroke-width:0.422024"
         id="path7629" />
      <path
         d="m 237.72016,405.90546 h 1.97824 v 12.14968 h -1.97824 z m 8.24266,12.14968 h -2.09364 l -2.29146,-4.40158 q -0.0495,0 -0.1154,0.0165 -0.0495,0 -0.16485,0 -0.1154,0 -0.34619,0 -0.21431,0 -0.57698,0 v -1.45071 h 1.121 q 0.36267,0 0.72535,-0.1154 0.36268,-0.13188 0.65942,-0.41213 0.29673,-0.28026 0.47807,-0.77481 0.18134,-0.51105 0.18134,-1.25289 0,-0.29674 -0.0824,-0.6759 -0.0824,-0.39565 -0.34619,-0.74184 -0.24728,-0.36268 -0.70887,-0.59347 -0.46159,-0.24728 -1.21992,-0.24728 h -0.80777 v -1.50017 h 0.84075 q 0.7748,0 1.53313,0.24729 0.75832,0.24727 1.3518,0.74184 0.60996,0.49455 0.97263,1.20342 0.37917,0.69239 0.37917,1.56611 0,1.31883 -0.60996,2.24201 -0.60996,0.92317 -1.64853,1.36828 z"
         style="font-family:'Allerta Stencil';-inkscape-font-specification:'Allerta Stencil, Normal';stroke-width:0.422024"
         id="path7626" />
      <path
         d="m 254.22196,407.78478 q -0.0824,-0.033 -0.19781,-0.11539 -0.1154,-0.0824 -0.32972,-0.14837 -0.21429,-0.0824 -0.544,-0.13189 -0.32972,-0.0495 -0.84076,-0.0165 v -1.66502 q 0.72536,0.0165 1.4672,0.16485 0.75833,0.13188 1.2199,0.42862 -0.0989,0.21431 -0.23077,0.47808 -0.13189,0.24728 -0.24729,0.47807 -0.1154,0.21431 -0.19783,0.36268 -0.0824,0.14836 -0.0989,0.16485 z m -5.68743,1.31883 q 0,-0.72536 0.24728,-1.30234 0.24728,-0.57699 0.65941,-1.00561 0.42863,-0.4451 0.98912,-0.69238 0.57699,-0.26377 1.20343,-0.34619 v 1.73096 q -0.52752,0.18134 -0.87372,0.64293 -0.34619,0.4451 -0.34619,0.90669 0,0.64293 0.34619,1.03857 0.3462,0.39565 0.87372,0.69239 v 1.87932 q -0.54401,-0.26376 -1.08803,-0.5605 -0.54401,-0.31322 -0.98912,-0.72535 -0.4451,-0.41214 -0.74184,-0.95615 -0.28025,-0.54402 -0.28025,-1.30234 z m 0.26377,6.72601 q 0.23079,0.13189 0.57698,0.26377 0.36268,0.11539 0.74185,0.23079 0.37915,0.0989 0.75832,0.16486 0.37916,0.0659 0.70887,0.0659 h 0.0495 v 1.5661 h -0.0329 q -0.39565,0 -0.82427,-0.0494 -0.41213,-0.033 -0.84075,-0.13189 -0.42862,-0.0989 -0.82427,-0.26376 -0.37916,-0.18134 -0.65941,-0.42862 z m 3.51137,-4.73128 q 0.54403,0.24727 1.10452,0.52753 0.57697,0.28025 1.03857,0.69238 0.4616,0.39564 0.75833,0.97263 0.29673,0.57699 0.29673,1.43423 0,0.59347 -0.23078,1.15397 -0.21432,0.5605 -0.62644,1.02209 -0.39565,0.4451 -0.98913,0.75832 -0.59348,0.31323 -1.3518,0.41214 v -1.58259 q 1.3518,-0.32971 1.3518,-1.7969 0,-0.57699 -0.37916,-0.95615 -0.37917,-0.37917 -0.97264,-0.70887 z"
         style="font-family:'Allerta Stencil';-inkscape-font-specification:'Allerta Stencil, Normal';stroke-width:0.422024"
         id="path7623" />
    </g>
  </g>
</svg>
