<?xml version="1.0" encoding="UTF-8"?>
<svg shape-rendering="geometricPrecision" version="1.1" viewBox="0 0 58.7 26.5" xmlns="http://www.w3.org/2000/svg">
 <g transform="translate(15.3 -67)">
  <g transform="matrix(.263 0 0 .259 .094 15.9)" style="white-space:pre" aria-label="HIRE">
   <path d="m31.2 197v28.8h-4.69v-13h-10.9v-3.2h10.9v-12.6zm-21.9 0h4.77v28.8h-4.77z"/>
   <path d="m43.3 226h-4.77v-28.8h4.77z"/>
   <path d="m50.4 197h4.69v28.8h-4.69zm19.5 28.8h-4.96l-5.43-10.4q-.117 0-.273.0391-.117 0-.391 0-.273 0-.82 0-.508 0-1.37 0v-3.44h2.66q.859 0 1.72-.273.859-.312 1.56-.977t1.13-1.84q.43-1.21.43-2.97 0-.703-.195-1.6-.195-.938-.82-1.76-.586-.859-1.68-1.41-1.09-.586-2.89-.586h-1.91v-3.55h1.99q1.84 0 3.63.586t3.2 1.76q1.45 1.17 2.3 2.85.898 1.64.898 3.71 0 3.12-1.45 5.31-1.45 2.19-3.91 3.24z"/>
   <path d="m76.4 197h4.77v28.8h-4.77zm16.8 15.8h-10.4v-3.2h10.4zm-10.4 9.41h11.6v3.55h-11.6zm11.6-25.2v3.55h-11.6v-3.55z"/>
  </g>
  <g transform="matrix(.263 0 0 .259 -17.5 25.6)" style="white-space:pre" aria-label="CARIBBEAN">
   <path d="m25.4 203q-.898-1.02-1.91-1.52t-2.19-.586v-3.87q4.38.195 7.34 3.09zm-4.1 19.6q1.17-.117 2.19-.625 1.05-.508 1.91-1.48l3.24 2.85q-1.48 1.45-3.32 2.23-1.84.781-4.02.898zm-12.7-10.9q0-3.48.82-6.13.859-2.66 2.34-4.49 1.48-1.84 3.48-2.85 2.03-1.02 4.41-1.21v3.91q-1.29.195-2.42.898-1.13.664-1.99 1.95t-1.37 3.28q-.469 1.95-.508 4.65.0391 2.73.508 4.69.508 1.95 1.37 3.28.859 1.33 1.99 2.03 1.17.703 2.42.859v3.83q-2.38-.156-4.41-1.17-1.99-1.02-3.48-2.85t-2.34-4.49q-.82-2.7-.82-6.17z"/>
   <path d="m59 226h-4.84l-7.46-21.6-7.54 21.6h-4.88l10.1-28.8h4.65zm-9.73-9.14 1.13 3.16h-7.46l1.09-3.16z"/>
   <path d="m65 197h4.69v28.8h-4.69zm19.5 28.8h-4.96l-5.43-10.4q-.117 0-.273.0391-.117 0-.391 0-.273 0-.82 0-.508 0-1.37 0v-3.44h2.66q.859 0 1.72-.273.859-.312 1.56-.977t1.13-1.84q.43-1.21.43-2.97 0-.703-.195-1.6-.195-.938-.82-1.76-.586-.859-1.68-1.41-1.09-.586-2.89-.586h-1.91v-3.55h1.99q1.84 0 3.63.586t3.2 1.76q1.45 1.17 2.3 2.85.898 1.64.898 3.71 0 3.12-1.45 5.31-1.45 2.19-3.91 3.24z"/>
   <path d="m95.7 226h-4.77v-28.8h4.77z"/>
   <path d="m117 211q.898.117 1.91.586 1.02.469 1.88 1.33.898.859 1.48 2.11.586 1.21.586 2.81 0 1.95-.586 3.36t-1.48 2.34q-.859.898-1.91 1.45-1.02.508-1.99.781-.938.273-1.68.352-.742.0391-.977.0391h-4.53v-3.44h4.26q2.07 0 3.24-1.33 1.17-1.33 1.17-3.55 0-2.11-1.21-3.55-1.21-1.45-3.55-1.45h-3.91v-3.16h1.88q.859 0 1.76-.0391t1.68-.43q.781-.391 1.25-1.33.508-.938.508-2.7 0-.703-.195-1.45-.195-.781-.781-1.41-.586-.625-1.68-1.02-1.09-.391-2.89-.391h-1.52v-3.55h1.99q1.84 0 3.55.43t3.05 1.37q1.33.938 2.11 2.46.781 1.48.781 3.55 0 1.21-.391 2.23-.391.977-.977 1.72-.586.742-1.37 1.25-.742.469-1.45.625zm-13.6-13.6h4.69v28.8h-4.69z"/>
   <path d="m143 211q.898.117 1.91.586 1.02.469 1.88 1.33.898.859 1.48 2.11.586 1.21.586 2.81 0 1.95-.586 3.36-.586 1.41-1.48 2.34-.859.898-1.91 1.45-1.02.508-1.99.781-.938.273-1.68.352-.742.0391-.977.0391h-4.53v-3.44h4.26q2.07 0 3.24-1.33 1.17-1.33 1.17-3.55 0-2.11-1.21-3.55-1.21-1.45-3.55-1.45h-3.91v-3.16h1.88q.859 0 1.76-.0391.898-.0391 1.68-.43.781-.391 1.25-1.33.508-.938.508-2.7 0-.703-.195-1.45-.195-.781-.781-1.41t-1.68-1.02q-1.09-.391-2.89-.391h-1.52v-3.55h1.99q1.84 0 3.55.43t3.05 1.37q1.33.938 2.11 2.46.781 1.48.781 3.55 0 1.21-.391 2.23-.391.977-.977 1.72-.586.742-1.37 1.25-.742.469-1.45.625zm-13.6-13.6h4.69v28.8h-4.69z"/>
   <path d="m155 197h4.77v28.8h-4.77zm16.8 15.8h-10.4v-3.2h10.4zm-10.4 9.41h11.6v3.55h-11.6zm11.6-25.2v3.55h-11.6v-3.55z"/>
   <path d="m203 226h-4.84l-7.46-21.6-7.54 21.6h-4.88l10.1-28.8h4.65zm-9.73-9.14 1.13 3.16h-7.46l1.09-3.16z"/>
   <path d="m226 197h4.77v28.8h-4.77l-9.69-17v-8.98l9.69 17.1zm-16.1 28.8v-28.8h4.77v28.8z"/>
  </g>
  <g transform="matrix(.263 0 0 .259 1.31 34.8)" style="white-space:pre" aria-label="DEV">
   <path d="m9.34 197h4.69v28.8h-4.69zm8.67 0q3.63 0 6.37 1.17 2.77 1.13 4.57 3.05 1.84 1.91 2.73 4.38.898 2.42.898 5 0 3.55-.781 6.09-.742 2.5-1.91 4.22-1.17 1.68-2.66 2.66-1.45.977-2.81 1.48-1.37.469-2.5.625-1.13.117-1.68.117h-4.61v-3.44h3.05q4.77 0 6.88-3.05 2.11-3.05 2.11-8.83 0-1.8-.43-3.55-.43-1.76-1.68-3.16-1.21-1.45-3.32-2.3-2.11-.898-5.47-.898h-1.13v-3.55z"/>
   <path d="m39.4 197h4.77v28.8h-4.77zm16.8 15.8h-10.4v-3.2h10.4zm-10.4 9.41h11.6v3.55h-11.6zm11.6-25.2v3.55h-11.6v-3.55z"/>
   <path d="m62.5 197h5.35l6.05 22.6v6.37h-2.46zm19.1 0h5.31l-9.38 28.9h-2.03v-7.62z"/>
  </g>
  <ellipse cx="-1.89" cy="89.7" rx="3.08" ry="3.04" style="fill:#1069e1;paint-order:fill markers stroke"/>
 </g>
</svg>
